#define waky_width 126
#define waky_height 63
static unsigned char waky_bits[] = {
   0x00, 0x00, 0x00, 0x00, 0x00, 0x00, 0x00, 0x00, 0x00, 0x00, 0x00, 0x00,
   0x00, 0x00, 0x00, 0x00, 0x00, 0x00, 0x00, 0x00, 0x00, 0x00, 0x00, 0x00,
   0x00, 0x00, 0x00, 0x00, 0x00, 0x00, 0x00, 0x00, 0x00, 0x00, 0x00, 0x00,
   0x00, 0x00, 0x00, 0x00, 0x00, 0x00, 0x00, 0x00, 0x00, 0x00, 0x00, 0x00,
   0x00, 0x00, 0x00, 0x00, 0xc0, 0x01, 0x00, 0x00, 0x00, 0x00, 0x00, 0x00,
   0x00, 0x00, 0x00, 0x00, 0x00, 0x00, 0x00, 0x00, 0x60, 0x03, 0x00, 0x00,
   0x00, 0x00, 0x00, 0x00, 0x00, 0x00, 0x00, 0x00, 0x00, 0x00, 0x00, 0x00,
   0x20, 0x04, 0x00, 0x06, 0x00, 0x00, 0x00, 0x00, 0x00, 0x00, 0x00, 0x00,
   0x00, 0x00, 0x00, 0x00, 0x20, 0x04, 0x80, 0x09, 0x00, 0x00, 0x00, 0x00,
   0x00, 0x00, 0x00, 0x00, 0x00, 0x00, 0x00, 0x00, 0x20, 0x08, 0xc0, 0x10,
   0x00, 0x00, 0x00, 0x00, 0x00, 0x00, 0x00, 0x00, 0x00, 0x00, 0x00, 0x00,
   0x40, 0x08, 0x20, 0x10, 0x00, 0x00, 0x00, 0x00, 0x00, 0x00, 0x00, 0x00,
   0x00, 0x00, 0x00, 0x00, 0x40, 0x00, 0x10, 0x10, 0x00, 0x00, 0x00, 0x00,
   0x00, 0x00, 0x00, 0x00, 0x00, 0x00, 0x00, 0x00, 0x40, 0x10, 0x18, 0x10,
   0x00, 0x00, 0x00, 0x00, 0x00, 0x00, 0x00, 0x00, 0x00, 0x00, 0x00, 0x00,
   0x40, 0x10, 0x08, 0x10, 0x00, 0x00, 0x00, 0x00, 0x00, 0x00, 0x00, 0x00,
   0x00, 0x00, 0x00, 0x00, 0x40, 0x10, 0x04, 0x10, 0x00, 0x00, 0x00, 0x00,
   0xc0, 0x00, 0x00, 0x00, 0x00, 0x00, 0xc0, 0x01, 0xc0, 0x10, 0x04, 0x18,
   0x00, 0x00, 0x00, 0x00, 0xe0, 0x01, 0x00, 0x00, 0x00, 0x00, 0x60, 0x3e,
   0x80, 0x10, 0x06, 0x08, 0x00, 0x00, 0x00, 0x00, 0xe0, 0x31, 0x00, 0x00,
   0x00, 0x00, 0x10, 0x60, 0x80, 0x20, 0x02, 0x04, 0x00, 0x00, 0x00, 0x00,
   0xe0, 0x79, 0x00, 0x00, 0x00, 0x00, 0x18, 0x80, 0x81, 0x20, 0x03, 0x02,
   0x00, 0x00, 0x00, 0x00, 0xe0, 0x7d, 0x00, 0x00, 0x00, 0x00, 0x10, 0x00,
   0x06, 0x20, 0x01, 0x02, 0x3f, 0x00, 0x00, 0x00, 0xef, 0x3e, 0x00, 0x00,
   0x00, 0x00, 0x20, 0x00, 0x0c, 0xa1, 0x01, 0x80, 0x41, 0x00, 0x00, 0x80,
   0xff, 0x1f, 0x00, 0x00, 0x00, 0x00, 0x60, 0x00, 0x10, 0xa1, 0x00, 0x61,
   0x40, 0x00, 0x00, 0x80, 0x7f, 0x7f, 0x00, 0x00, 0x00, 0x00, 0x80, 0x07,
   0x20, 0xa1, 0x80, 0x18, 0x40, 0x00, 0x00, 0x00, 0x3f, 0xfe, 0x00, 0x00,
   0x00, 0x00, 0x00, 0x3e, 0x60, 0x41, 0x40, 0x0e, 0x60, 0x00, 0x00, 0x00,
   0x3e, 0xfe, 0x00, 0x00, 0x00, 0x00, 0x00, 0x60, 0xc0, 0x62, 0x20, 0x03,
   0x20, 0x00, 0x00, 0x00, 0xbc, 0xff, 0x00, 0x00, 0x00, 0x00, 0x80, 0x81,
   0x81, 0x23, 0x90, 0x00, 0x18, 0x00, 0x00, 0x00, 0xff, 0x7f, 0x00, 0x00,
   0x00, 0x00, 0xf8, 0x1f, 0x02, 0x22, 0x68, 0x00, 0x0c, 0x00, 0x00, 0x00,
   0xff, 0x07, 0x00, 0x00, 0x00, 0x00, 0x03, 0xf0, 0x06, 0x00, 0x3c, 0x00,
   0x03, 0x00, 0x00, 0x80, 0xff, 0x0f, 0x00, 0x00, 0x00, 0x80, 0x01, 0x80,
   0x0b, 0x06, 0x08, 0x78, 0x00, 0x00, 0x00, 0x80, 0xff, 0x0f, 0x00, 0x00,
   0x00, 0x40, 0x00, 0x00, 0x0e, 0x86, 0x81, 0x0f, 0x00, 0x00, 0x00, 0x00,
   0x67, 0x1f, 0x00, 0x00, 0x00, 0x20, 0x00, 0x00, 0x1c, 0x87, 0xc1, 0xf9,
   0x3b, 0x00, 0x00, 0x00, 0x70, 0x1f, 0x00, 0x00, 0x00, 0x20, 0x00, 0x00,
   0x80, 0x03, 0x23, 0x0f, 0x40, 0x00, 0x00, 0x00, 0x38, 0x0f, 0x00, 0x00,
   0x00, 0xe0, 0x00, 0x00, 0x80, 0x01, 0xe7, 0x00, 0x80, 0x00, 0x00, 0x7c,
   0x18, 0x06, 0x00, 0x00, 0x00, 0x80, 0xff, 0x0f, 0xc0, 0x00, 0x06, 0x00,
   0x00, 0x01, 0x00, 0xc6, 0x0d, 0x00, 0x00, 0x00, 0x00, 0x00, 0x00, 0x60,
   0x40, 0x00, 0x00, 0x00, 0x80, 0x00, 0x00, 0x03, 0x0f, 0x00, 0x00, 0x00,
   0x00, 0x00, 0x00, 0x70, 0xc0, 0xc1, 0x00, 0x00, 0x60, 0x00, 0x00, 0x01,
   0xf8, 0x07, 0x00, 0x00, 0x00, 0x00, 0x1f, 0x00, 0xc0, 0x23, 0x01, 0x00,
   0x18, 0x00, 0x80, 0x01, 0x30, 0x08, 0x00, 0x00, 0x00, 0xe0, 0x01, 0x00,
   0xe0, 0xf3, 0x01, 0xff, 0x03, 0x00, 0x80, 0x00, 0x00, 0x30, 0x00, 0x00,
   0x00, 0x18, 0x00, 0x00, 0x60, 0x34, 0x01, 0x0e, 0x00, 0x00, 0x40, 0x00,
   0x00, 0x20, 0x00, 0x00, 0x00, 0x04, 0x00, 0x38, 0x70, 0x14, 0x02, 0xe0,
   0x01, 0x00, 0x40, 0x00, 0x00, 0x20, 0x00, 0x00, 0x00, 0x02, 0x00, 0x3f,
   0x30, 0x0a, 0x81, 0x00, 0x3f, 0x00, 0x60, 0x00, 0x00, 0x20, 0x00, 0x00,
   0x00, 0x01, 0xa0, 0x0f, 0x10, 0x87, 0x01, 0x03, 0x7d, 0x00, 0x20, 0x00,
   0x00, 0x20, 0x00, 0x00, 0x00, 0x01, 0xdc, 0x01, 0x10, 0x97, 0x01, 0x07,
   0xff, 0x00, 0x20, 0x00, 0x00, 0x20, 0x00, 0x00, 0x00, 0xc3, 0x77, 0x20,
   0x18, 0xf2, 0x01, 0x3a, 0xff, 0x7f, 0x30, 0x00, 0x00, 0x20, 0x00, 0x00,
   0x00, 0x3c, 0x1c, 0x20, 0xf0, 0xe7, 0x03, 0xe4, 0xe0, 0xe7, 0x17, 0x00,
   0x00, 0x30, 0x00, 0x00, 0x00, 0x00, 0x03, 0x30, 0xe4, 0xcf, 0x05, 0x18,
   0x7f, 0xfc, 0x0f, 0xf0, 0x00, 0x10, 0x00, 0x00, 0x00, 0x80, 0x00, 0x18,
   0x8c, 0x09, 0x04, 0x60, 0x00, 0xe0, 0x7f, 0xfc, 0x01, 0x18, 0xf0, 0x07,
   0x00, 0x40, 0x00, 0x0c, 0x88, 0x00, 0x9e, 0xc0, 0x00, 0x00, 0xfc, 0xff,
   0x03, 0x0c, 0x0e, 0x00, 0x00, 0x20, 0x00, 0x0a, 0x08, 0x00, 0x83, 0x01,
   0x03, 0x00, 0xfe, 0xdf, 0x03, 0xc6, 0x01, 0x00, 0x00, 0x10, 0x00, 0x05,
   0x1c, 0x80, 0x81, 0x03, 0x06, 0x00, 0xcf, 0x8f, 0x07, 0x72, 0x00, 0x00,
   0x00, 0x08, 0xc0, 0x46, 0x76, 0xc0, 0x00, 0x07, 0x0c, 0x00, 0x87, 0x07,
   0x07, 0x09, 0xfe, 0x00, 0x00, 0x04, 0x40, 0x41, 0xc3, 0x70, 0x10, 0x0f,
   0x18, 0x80, 0x87, 0x07, 0x87, 0xe5, 0x00, 0x02, 0x00, 0x02, 0x10, 0x41,
   0x00, 0x3f, 0x10, 0x1a, 0x10, 0x80, 0xe3, 0x47, 0xc7, 0xff, 0x03, 0x04,
   0x00, 0x02, 0x8c, 0x40, 0x80, 0x31, 0x30, 0x66, 0x20, 0x80, 0xe3, 0xa7,
   0xff, 0xff, 0x1f, 0x00, 0x00, 0x00, 0x43, 0x60, 0x80, 0x1f, 0x30, 0xcc,
   0x20, 0x80, 0xc3, 0xe7, 0xff, 0x07, 0x20, 0x00, 0x00, 0xe1, 0x20, 0x20,
   0x00, 0x00, 0x30, 0x18, 0x1f, 0x80, 0xf7, 0xc7, 0xff, 0xff, 0x40, 0x00,
   0x00, 0x3e, 0x30, 0x40, 0x00, 0x00, 0x70, 0x10, 0x0c, 0x00, 0xff, 0xc7,
   0xff, 0x07, 0x01, 0x00, 0x00, 0x00, 0x10, 0x58, 0x00, 0x00, 0x60, 0x20,
   0x00, 0x00, 0x7e, 0xff, 0xe1, 0x1f, 0x86, 0x00, 0x00, 0x00, 0x08, 0x48,
   0x00, 0x00, 0xa0, 0x20, 0x80, 0x01, 0x18, 0xff, 0x3c, 0x24, 0x0c, 0x01,
   0x00, 0x00, 0x08, 0x44, 0x00, 0x00, 0xa0, 0x40, 0x60, 0x07, 0x0f, 0x3c,
   0x66, 0x44, 0x08, 0x01, 0x00, 0x00, 0x04, 0x26, 0x00, 0x00, 0x60, 0x41,
   0x18, 0xfc, 0x03, 0x00, 0x1f, 0x88, 0x00, 0x00, 0x00, 0x00, 0x84, 0x23,
   0x00, 0x00, 0x40, 0x83, 0x06, 0x00, 0x00, 0x00, 0x15, 0x08, 0x10, 0x00,
   0x00, 0x00, 0xc4, 0x20, 0x00, 0x00, 0xc0, 0x86, 0x02, 0x00, 0xc0, 0x08,
   0x05, 0x04, 0x11, 0x00, 0x00, 0x00, 0x7c, 0x10, 0x00, 0x00, 0x80, 0x5d,
   0x01, 0x00, 0xc0, 0x11, 0x1d, 0x02, 0x10, 0x00, 0x00, 0x00, 0x10, 0x0c,
   0x00, 0x00, 0x00, 0x31, 0x01, 0x00, 0x00, 0x73, 0x83, 0x03, 0x10, 0x00 };
